<svg class="typst-doc" viewBox="0 0 127.3912 101.32799999999999" width="127.3912pt" height="101.32799999999999pt" xmlns="http://www.w3.org/2000/svg" xmlns:xlink="http://www.w3.org/1999/xlink" xmlns:h5="http://www.w3.org/1999/xhtml">
    <path class="typst-shape" fill="#ffffff" fill-rule="nonzero" d="M 0 0v 101.328 h 127.3912 v -101.328 Z "/>
    <g>
        <g class="typst-text" transform="matrix(1 0 0 -1 24 56.663999999999994)">
            <use xlink:href="#gAB6612D4D161E9C491E17BEA1A404D6B" x="0" y="0" fill="#000000" fill-rule="nonzero"/>
        </g>
        <g class="typst-text" transform="matrix(1 0 0 -1 51.97599999999999 56.663999999999994)">
            <use xlink:href="#gA3FBEDB92F0475741EEFF84D028DF3ED" x="0" y="0" fill="#000000" fill-rule="nonzero"/>
        </g>
        <g class="typst-text" transform="matrix(1 0 0 -1 65.704 47.952)">
            <use xlink:href="#g349F0664AFFB231BC300E6DB4CCC31C8" x="0" y="0" fill="#000000" fill-rule="nonzero"/>
        </g>
        <g class="typst-text" transform="matrix(1 0 0 -1 76.6072 56.663999999999994)">
            <use xlink:href="#g6570E13799E9BF3946EAE7F315CD0489" x="0" y="0" fill="#000000" fill-rule="nonzero"/>
        </g>
        <g class="typst-text" transform="matrix(1 0 0 -1 89.6632 56.663999999999994)">
            <use xlink:href="#gA3FBEDB92F0475741EEFF84D028DF3ED" x="0" y="0" fill="#000000" fill-rule="nonzero"/>
        </g>
    </g>
    <defs id="glyph">
        <symbol id="gAB6612D4D161E9C491E17BEA1A404D6B" overflow="visible">
            <path d="M 0 0m 19.944 32.664 c -1.1280003 0 -2.1359997 -1.0320015 -3.0720005 -3.0960007 c -0.45599937 -0.98400116 -0.9359999 -2.4720001 -1.4639997 -4.4640007 c -2.328 -8.591999 -4.08 -16.968 -5.9279995 -27.912 c -0.84000015 -5.064 -1.5360003 -8.736 -2.0880003 -10.968 c -0.9840002 -4.104001 -2.112 -6.168 -3.3600001 -6.168 c -0.4560001 0 -0.8640001 0.12000084 -1.224 0.38400078 c 0.69599986 0.11999893 1.0320001 0.5279999 1.0320001 1.2479992 c 0 0.69600105 -0.5280001 1.2479992 -1.2240002 1.2479992 c -0.8399999 0 -1.272 -0.4319992 -1.272 -1.2719994 c 0 -1.3920002 1.3680001 -2.327999 2.736 -2.327999 c 1.7520003 0 3.192 1.3920002 4.3199997 4.1519985 c 0.6000004 1.4640007 1.4160004 4.2960005 2.4240007 8.448001 c 1.7519999 7.1280003 3.3119993 14.76 4.6799994 22.872002 c 0.960001 5.6879997 1.8240013 10.007999 2.5680008 12.959999 c 0.69599915 2.7840004 1.3439999 4.1760006 1.9200001 4.1760006 c 0.47999954 0 0.8880005 -0.12000084 1.1999989 -0.38400078 c -0.69599915 -0.11999893 -1.0559998 -0.5279999 -1.0559998 -1.2479992 c 0 -0.69599915 0.5279999 -1.2479992 1.2240009 -1.2479992 c 0.84000015 0 1.2719994 0.4319992 1.2719994 1.2719994 c 0 1.3199997 -1.2959995 2.328001 -2.6879997 2.328001 Z "/>
        </symbol>
        <symbol id="gA3FBEDB92F0475741EEFF84D028DF3ED" overflow="visible">
            <path d="M 0 0m 12.648 8.952 c 0 1.1040001 -1.0799999 1.6560001 -2.2799997 1.6560001 c -1.0319996 0 -1.8479996 -0.55200005 -2.4720001 -1.6560001 c -0.5039997 1.1040001 -1.3439999 1.6560001 -2.5679998 1.6560001 c -1.1760001 0 -2.1360002 -0.55200005 -2.904 -1.632 c -0.648 -0.9359999 -0.98399997 -1.632 -0.98399997 -2.0879998 c 0 -0.21600008 0.120000005 -0.33599997 0.36 -0.33599997 c 0.21599996 0 0.36 0.119999886 0.40799987 0.33599997 c 0.4560001 1.3919997 1.464 3.0239997 3.0720003 3.0239997 c 0.7919998 0 1.1759996 -0.5039997 1.1759996 -1.4879999 c 0 -0.5039997 -0.43199968 -2.376 -1.2719998 -5.592 c -0.408 -1.608 -1.1279998 -2.4 -2.16 -2.4 c -0.33599997 0 -0.648 0.072 -0.91199994 0.192 c 0.6240001 0.24000001 0.9360001 0.672 0.9360001 1.296 c 0 0.62399983 -0.31200004 0.9359999 -0.96000004 0.9359999 c -0.79200006 0 -1.3920001 -0.67199993 -1.3920001 -1.464 c 0 -1.104 1.128 -1.6559999 2.304 -1.6559999 c 1.0079999 0 1.8239999 0.552 2.4720001 1.6559999 c 0.45599985 -1.104 1.3200002 -1.6559999 2.5679998 -1.6559999 c 1.1520004 0 2.1120005 0.552 2.88 1.632 c 0.64799976 0.9359999 0.9840002 1.632 0.9840002 2.088 c 0 0.21599984 -0.119999886 0.33599997 -0.3600006 0.33599997 c -0.2159996 0 -0.3359995 -0.120000124 -0.408 -0.33599997 c -0.408 -1.368 -1.4879999 -3.0240002 -3.0479994 -3.0240002 c -0.7920003 0 -1.2000003 0.48 -1.2000003 1.464 c 0 0.31199992 0.119999886 0.9840001 0.38399982 2.0640001 l 0.81600046 3.2400002 c 0.45599937 1.7999997 1.1999998 2.7119994 2.2559996 2.7119994 c 0.33600044 0 0.64799976 -0.07199955 0.91200066 -0.19199944 c -0.6480007 -0.21600056 -0.96000004 -0.64799976 -0.96000004 -1.2960005 c 0 -0.6239996 0.3359995 -0.9359999 0.98399925 -0.9359999 c 0.7680006 0 1.368 0.6960001 1.368 1.4639997 Z "/>
        </symbol>
        <symbol id="g349F0664AFFB231BC300E6DB4CCC31C8" overflow="visible">
            <path d="M 0 0m 1.9992 7.1232 c 0.5375999 0 0.94079983 0.40319967 0.94079983 0.9408002 c 0 0.6047993 -0.3191998 0.9239998 -0.94079983 0.9407997 c 0.36959994 0.7895994 1.2095999 1.4279995 2.3016 1.4279995 c 1.4783998 0 2.4527998 -1.1087999 2.4527998 -2.5871997 c 0 -0.8063998 -0.2855997 -1.5791998 -0.8736 -2.3351998 c -0.2855997 -0.38640022 -0.5039997 -0.6552 -0.6552 -0.8063998 l -3.9815998 -3.948 c -0.2184 -0.20160002 -0.18480003 -0.25199997 -0.18480003 -0.756 h 6.9215994 l 0.5208006 3.1583998 h -0.70560026 c -0.117599964 -0.89039993 -0.25200033 -1.4111999 -0.40320015 -1.5287999 c -0.08400011 -0.05040002 -0.60479975 -0.08399999 -1.5959997 -0.08399999 h -2.8560002 c 1.1256001 0.9912 2.1671999 1.8815999 3.1583998 2.6711998 c 0.75600004 0.5880003 1.2936001 1.1087999 1.6296 1.5623999 c 0.5039997 0.6552 0.75599957 1.3440003 0.75599957 2.0664 c 0 1.0415998 -0.4031992 1.8648 -1.2263994 2.4696002 c -0.7224002 0.5543995 -1.6296 0.84000015 -2.7048001 0.84000015 c -0.9239998 0 -1.7135999 -0.26880074 -2.4023998 -0.8064003 c -0.72239995 -0.5880003 -1.092 -1.3271999 -1.092 -2.2343998 c 0 -0.5712004 0.42000008 -0.9912 0.9408001 -0.9912 Z "/>
        </symbol>
        <symbol id="g6570E13799E9BF3946EAE7F315CD0489" overflow="visible">
            <path d="M 0 0m 10.2960005 15.168 l -1.4160004 -5.832 c -0.5039997 0.88799953 -1.1999998 1.3439999 -2.1360002 1.3439999 c -1.56 0 -2.928 -0.7919998 -4.1280003 -2.4000006 c -1.104 -1.4879994 -1.6559999 -3.0479999 -1.6559999 -4.6559997 c 0 -2.112 1.224 -3.888 3.2399998 -3.888 c 1.0320001 0 2.0400004 0.552 3.0000005 1.6800001 c 0.26399994 -0.912 1.0799994 -1.6800001 2.2079997 -1.6800001 c 1.6560001 0 2.184 1.9679999 2.5439997 3.744 c 0 0.21600008 -0.119999886 0.33599997 -0.35999966 0.33599997 c -0.2159996 0 -0.35999966 -0.16799998 -0.43200016 -0.50399995 c -0.47999954 -1.896 -1.0559998 -2.856 -1.7039995 -2.856 c -0.408 0 -0.62400055 0.336 -0.62400055 0.9840001 c 0 0.36 0.048000336 0.74399996 0.14400005 1.128 l 3.408 13.728 v 0.09600067 c -0.07199955 0.16799927 -0.2159996 0.26399994 -0.408 0.26399994 c -0.55200005 0 -1.5599995 -0.09600067 -3 -0.26399994 c -0.26399994 -0.024000168 -0.408 -0.2159996 -0.408 -0.55200005 c 0 -0.23999977 0.21600056 -0.35999966 0.64799976 -0.35999966 c 0.45600033 0 1.0800009 0.023999214 1.0800009 -0.31200027 Z m -2.1120005 -6.144 c 0.23999977 -0.5039997 0.35999966 -0.84000015 0.35999966 -1.0560002 c -0.023999214 -0.09599972 -0.047999382 -0.21600008 -0.07199955 -0.38399982 l -1.1760001 -4.656 c -0.07200003 -0.26399994 -0.23999977 -0.55200005 -0.45599985 -0.8399999 c -0.888 -1.08 -1.7520003 -1.6320001 -2.592 -1.6320001 c -0.9360001 0 -1.4160001 0.72 -1.4160001 2.136 c 0 0.576 0.14400005 1.44 0.43199992 2.592 c 0.5040002 2.04 1.224 3.4320002 2.112 4.1759996 c 0.48000002 0.408 0.93600035 0.6000004 1.3920002 0.6000004 c 0.64799976 0 1.1279998 -0.31200027 1.4159999 -0.9359999 Z "/>
        </symbol>
    </defs>
</svg>
